<?xml version="1.0" encoding="utf-8"?>
<!-- Generator: Adobe Illustrator 21.1.0, SVG Export Plug-In . SVG Version: 6.00 Build 0)  -->
<svg version="1.1" id="t11" xmlns="http://www.w3.org/2000/svg" xmlns:xlink="http://www.w3.org/1999/xlink" x="0px" y="0px"
	 viewBox="0 0 58 61" style="enable-background:new 0 0 58 61;" xml:space="preserve">
<path aria-hidden="true" fill="#ED6C58" d="M51.8,8.8C51.6,9,51.3,9.1,51,9.2c-0.3,0.1-0.7,0.1-1,0.1c-0.4,0-0.8-0.1-1.2-0.1c-0.4-0.1-0.8-0.2-1.3-0.5
	L48,7.4c0.3,0.2,0.6,0.3,0.9,0.5c0.3,0.1,0.6,0.2,1,0.2c0.3,0,0.5,0,0.7-0.1c0.1-0.1,0.3-0.3,0.3-0.6c0-0.1-0.1-0.3-0.1-0.4
	c-0.1-0.1-0.3-0.2-0.6-0.3l-0.8-0.2c-0.3-0.1-0.5-0.1-0.7-0.2c-0.2-0.1-0.4-0.2-0.6-0.3c-0.2-0.1-0.3-0.3-0.4-0.5
	c-0.1-0.2-0.1-0.5-0.1-0.8c0-0.4,0.1-0.7,0.3-1c0.1-0.3,0.3-0.5,0.6-0.6c0.3-0.1,0.6-0.3,0.8-0.3c0.3,0,0.6-0.1,0.9-0.1
	c0.5,0,0.8,0.1,1.2,0.1c0.3,0.1,0.6,0.2,1,0.3l-0.6,1.2C51.4,4.2,51.2,4.1,51,4c-0.2-0.1-0.5-0.1-0.8-0.1c-0.1,0-0.2,0-0.3,0
	C49.8,4,49.6,4,49.6,4c-0.1,0.1-0.1,0.1-0.2,0.2c-0.1,0.1-0.1,0.2-0.1,0.3c0,0.2,0.1,0.4,0.2,0.5c0.2,0.1,0.3,0.1,0.6,0.2l0.7,0.2
	c0.3,0.1,0.5,0.1,0.7,0.2C51.6,5.8,51.9,5.9,52,6c0.2,0.1,0.3,0.3,0.4,0.5c0.1,0.2,0.1,0.5,0.1,0.8c0,0.3-0.1,0.6-0.2,0.8
	C52.2,8.4,52,8.6,51.8,8.8z M51.2,13.7c4.2,5,6.8,11.4,6.8,18.5C58,48.2,45.1,61,29.1,61S0,48,0,32.2c0-7.1,2.5-13.5,6.6-18.5h4.9
	c-4.9,4.7-8,11.3-8,18.6c0,13.9,11.5,25.2,25.5,25.2c13.9,0,25.4-11.4,25.4-25.2c0-7.3-3-13.9-7.9-18.6H51.2z M45.6,8.8
	c-0.2,0.2-0.5,0.3-0.8,0.4s-0.7,0.1-1,0.1c-0.4,0-0.8-0.1-1.2-0.1c-0.4-0.1-0.8-0.2-1.3-0.5l0.6-1.3c0.3,0.2,0.6,0.3,0.9,0.5
	c0.3,0.1,0.6,0.2,1,0.2c0.3,0,0.5,0,0.7-0.1c0.2-0.1,0.3-0.3,0.3-0.6c0-0.1-0.1-0.3-0.1-0.4c-0.1-0.1-0.3-0.2-0.6-0.3l-0.8-0.2
	c-0.3-0.1-0.5-0.1-0.7-0.2C42.3,6.2,42.1,6,42,5.9c-0.2-0.1-0.3-0.3-0.4-0.5c-0.1-0.2-0.1-0.5-0.1-0.8c0-0.3,0.1-0.7,0.3-1
	C41.8,3.4,42,3.2,42.3,3s0.6-0.3,0.8-0.3c0.3,0,0.6-0.1,0.9-0.1c0.5,0,0.8,0.1,1.2,0.1c0.3,0.1,0.6,0.2,1,0.3l-0.6,1.2
	c-0.3-0.1-0.5-0.3-0.7-0.3c-0.2-0.1-0.5-0.1-0.8-0.1c-0.1,0-0.2,0-0.3,0C43.7,4,43.6,4,43.5,4c-0.1,0.1-0.1,0.1-0.3,0.2
	c-0.1,0.1-0.1,0.2-0.1,0.3c0,0.2,0.1,0.4,0.2,0.5c0.2,0.1,0.3,0.1,0.6,0.2l0.7,0.2c0.3,0.1,0.5,0.1,0.7,0.2c0.2,0.1,0.4,0.2,0.6,0.3
	c0.2,0.1,0.3,0.3,0.4,0.5c0.1,0.2,0.1,0.5,0.1,0.8c0,0.3-0.1,0.6-0.2,0.8C46.1,8.4,45.8,8.6,45.6,8.8z M36.4,7.5
	C36.7,7.8,37.1,8,37.8,8c0.3,0,0.6,0,0.9-0.1c0.3-0.1,0.6-0.2,0.8-0.3l0.4,1.2C39.4,9,39,9.1,38.7,9.2c-0.4,0.1-0.8,0.1-1.2,0.1
	c-0.5,0-1-0.1-1.4-0.2c-0.4-0.1-0.8-0.3-1-0.6c-0.3-0.3-0.5-0.6-0.6-0.9c-0.1-0.4-0.2-0.8-0.2-1.4c0-0.5,0.1-1,0.2-1.4
	c0.1-0.4,0.3-0.8,0.6-1.1c0.3-0.3,0.6-0.5,1-0.7c0.4-0.2,0.9-0.3,1.5-0.3c0.5,0,0.9,0.1,1.2,0.2c0.3,0.1,0.6,0.3,0.8,0.6
	c0.2,0.3,0.4,0.6,0.5,0.9c0.1,0.3,0.1,0.7,0.1,1.1v0.6h-4.4C35.9,6.7,36,7.2,36.4,7.5z M38.6,5.1c0-0.1,0-0.3-0.1-0.4
	c-0.1-0.1-0.1-0.3-0.2-0.4C38.3,4.2,38.1,4,38,4c-0.1-0.1-0.3-0.1-0.5-0.1c-0.4,0-0.7,0.1-1,0.3c-0.3,0.2-0.4,0.6-0.5,0.9H38.6z
	 M38.1,19.5h4.8v27.9H37V25.5c-0.9,0.8-3.7,2.2-4.8,2.7L30.8,29l-1.9-4.3l1.7-0.8C33.8,22.4,36.9,20.5,38.1,19.5z M32.2,4.4
	c-0.3,0-0.6,0.1-0.8,0.3c-0.2,0.2-0.3,0.6-0.3,1v3.4h-1.7V2.8h1.7V4c0.3-0.5,0.6-0.9,1-1.1c0.4-0.2,0.9-0.3,1.5-0.2l-0.3,1.8
	C32.9,4.4,32.6,4.4,32.2,4.4z M24.3,9.4c-0.1,0-0.3,0-0.5,0c-0.2-0.1-0.3-0.1-0.5-0.1h-0.1V12h-1.7V2.8h1.7V4c0.2-0.4,0.4-0.7,0.8-1
	c0.3-0.3,0.8-0.4,1.2-0.4c0.4,0,0.8,0.1,1.1,0.3C26.7,3,27,3.3,27.2,3.5c0.2,0.3,0.4,0.6,0.5,1c0.1,0.3,0.1,0.8,0.1,1.2
	c0,1.2-0.3,2.1-0.9,2.7C26.3,9,25.4,9.4,24.3,9.4z M26,5.1c-0.1-0.2-0.1-0.4-0.2-0.6c-0.1-0.2-0.3-0.3-0.4-0.4
	C25.3,4.1,25.1,4,24.8,4c-0.3,0-0.5,0.1-0.6,0.1c-0.1,0.1-0.3,0.2-0.4,0.3c-0.1,0.2-0.3,0.4-0.3,0.7c-0.1,0.3-0.1,0.6-0.1,0.8v2.1
	c0.3,0.1,0.7,0.1,1,0.1c0.3,0,0.6-0.1,0.8-0.2c0.3-0.1,0.4-0.3,0.6-0.5C25.9,7.3,26,7.1,26,6.8c0.1-0.3,0.1-0.6,0.1-1
	C26.1,5.5,26.1,5.3,26,5.1z M26,47.4h-5.9V25.5c-0.9,0.8-3.7,2.2-4.8,2.7L13.9,29l-1.9-4.3l1.7-0.8c3.2-1.5,6.3-3.4,7.5-4.4H26V47.4
	z M18.6,9.2L17.1,7l-1.5,2.2h-1.9L16.2,6l-2.3-3.2h1.9l1.4,2l1.4-2h1.8l-2.3,3.1l2.6,3.3H18.6z M6.8,0h6.1v1.4H8.6v2.3h3.9v1.4H8.6
	v2.8H13v1.4H6.8V0z"/>
</svg>
