<?xml version="1.0" encoding="utf-8"?>
<!-- Generator: Adobe Illustrator 21.1.0, SVG Export Plug-In . SVG Version: 6.00 Build 0)  -->
<svg version="1.1" id="rer" xmlns="http://www.w3.org/2000/svg" xmlns:xlink="http://www.w3.org/1999/xlink" x="0px" y="0px"
	 viewBox="0 0 58 58" style="enable-background:new 0 0 58 58;" xml:space="preserve">
<path fill="#0088ce" d="M29.1,58C13.1,58,0,45,0,29.1C0,13.1,13.1,0,29.1,0C44.5,0,58,13.1,58,29.1C58,45.2,45.1,58,29.1,58z M29.1,3.9
	C15.3,3.9,4,15.3,4,29.1C4,42.8,15.3,54,29.1,54C42.8,54,54,42.8,54,29.1C54,15.4,42.8,3.9,29.1,3.9z M46.4,30.1l3.1,6.5
	c0.7,1.3-1,2.4-2.2,2.4c-0.6,0-1.1-0.2-1.4-0.8l-3.3-7.3H41v6.6c0,1-0.9,1.5-2,1.5c-1,0-2-0.5-2-1.5v-17c0-0.9,0.6-1.7,1.6-1.7h5.4
	c2.8,0,5.7,1.8,5.7,5.7C49.8,27.5,48.2,29.1,46.4,30.1z M42.3,22.1H41V28h1.2c1.4,0,3.6-0.6,3.6-3C45.7,22.9,44.2,22.1,42.3,22.1z
	 M33.5,35.3c1,0,1.6,0.9,1.6,1.8c0,0.8-0.6,1.8-1.6,1.8H26c-1,0-2-0.5-2-1.5v-17c0-0.9,0.6-1.7,1.6-1.7H33c1,0,1.6,0.9,1.6,1.8
	c0,0.8-0.6,1.8-1.6,1.8H28V27h4.6c1,0,1.6,0.8,1.6,1.7c0,0.8-0.6,1.7-1.6,1.7H28v5H33.5z M18.3,30.1l3.1,6.5c0.7,1.3-1,2.4-2.2,2.4
	c-0.6,0-1.1-0.2-1.4-0.8l-3.3-7.3h-1.7v6.6c0,1-0.9,1.5-2,1.5C10,39,9,38.5,9,37.5v-17c0-0.9,0.6-1.7,1.6-1.7H16
	c2.8,0,5.7,1.8,5.7,5.7C21.7,27.5,20.2,29.1,18.3,30.1z M14.3,22.1h-1.4V28h1.2c1.4,0,3.6-0.6,3.6-3C17.7,22.9,16.1,22.1,14.3,22.1z
	"/>
</svg>
