<?xml version="1.0" encoding="utf-8"?>
<!-- Generator: Adobe Illustrator 21.1.0, SVG Export Plug-In . SVG Version: 6.00 Build 0)  -->
<svg version="1.1" id="tram" xmlns="http://www.w3.org/2000/svg" xmlns:xlink="http://www.w3.org/1999/xlink" x="0px" y="0px"
	 viewBox="0 0 58 58" style="enable-background:new 0 0 58 58;" xml:space="preserve">
<path fill="#0088ce" d="M28.9,58C12.9,58,0,45.1,0,29.1C0,13,12.9,0,28.9,0C45,0,58,13,58,29.1C58,45.1,45,58,28.9,58z M28.9,4.3
	C15.3,4.3,4.3,15.3,4.3,29c0,13.6,11,24.6,24.6,24.6c13.7,0,24.8-11,24.8-24.6C53.7,15.3,42.6,4.3,28.9,4.3z M40.5,19.8h-8.9v23.8
	c0,1.3-1.3,2-2.7,2c-1.2,0-2.6-0.7-2.6-2V19.8h-8.9c-1.3,0-2.1-1.3-2.1-2.3c0-1.2,0.7-2.3,2.1-2.3h22.9c1.3,0,2,1.1,2,2.3
	C42.5,18.6,41.8,19.8,40.5,19.8z"/>
</svg>
